<mxfile host="Electron" agent="Mozilla/5.0 (Windows NT 10.0; Win64; x64) AppleWebKit/537.36 (KHTML, like Gecko) draw.io/28.1.2 Chrome/138.0.7204.243 Electron/37.4.0 Safari/537.36" version="28.1.2" pages="3">
  <diagram name="Overall System Architurecture" id="z4RykY5hizcRCmj2_LRI">
    <mxGraphModel dx="941" dy="605" grid="1" gridSize="10" guides="1" tooltips="1" connect="1" arrows="1" fold="1" page="1" pageScale="1" pageWidth="850" pageHeight="1100" math="0" shadow="0">
      <root>
        <mxCell id="0" />
        <mxCell id="1" parent="0" />
        <mxCell id="U-rFDizpqV9OptAms4BL-1" value="" style="group" vertex="1" connectable="0" parent="1">
          <mxGeometry x="139.70999999999998" y="445.59000000000003" width="595.48" height="124.80000000000007" as="geometry" />
        </mxCell>
        <mxCell id="udmamTYrZxteHQdMKwFK-1" value="" style="rounded=0;whiteSpace=wrap;html=1;rotation=90;" parent="U-rFDizpqV9OptAms4BL-1" vertex="1">
          <mxGeometry x="235.34000000000003" y="-235.34000000000006" width="124.8" height="595.48" as="geometry" />
        </mxCell>
        <mxCell id="LSS1mVQiBMyXZvM07RnL-2" style="edgeStyle=orthogonalEdgeStyle;rounded=0;orthogonalLoop=1;jettySize=auto;html=1;entryX=0;entryY=0.5;entryDx=0;entryDy=0;" parent="U-rFDizpqV9OptAms4BL-1" source="hXkjwgLwi-NlTGDa15fy-1" target="hXkjwgLwi-NlTGDa15fy-2" edge="1">
          <mxGeometry relative="1" as="geometry" />
        </mxCell>
        <mxCell id="hXkjwgLwi-NlTGDa15fy-1" value="Dayforce HR&lt;br&gt;&lt;div&gt;(Source System)&lt;/div&gt;" style="rounded=1;whiteSpace=wrap;html=1;" parent="U-rFDizpqV9OptAms4BL-1" vertex="1">
          <mxGeometry x="22.74000000000002" y="27.39999999999994" width="150" height="70" as="geometry" />
        </mxCell>
        <mxCell id="LSS1mVQiBMyXZvM07RnL-3" style="edgeStyle=orthogonalEdgeStyle;rounded=0;orthogonalLoop=1;jettySize=auto;html=1;entryX=0;entryY=0.5;entryDx=0;entryDy=0;" parent="U-rFDizpqV9OptAms4BL-1" source="hXkjwgLwi-NlTGDa15fy-2" target="hXkjwgLwi-NlTGDa15fy-3" edge="1">
          <mxGeometry relative="1" as="geometry" />
        </mxCell>
        <mxCell id="hXkjwgLwi-NlTGDa15fy-2" value="Databricks Pipeline&lt;div&gt;&lt;div&gt;(Medallion Architecture)&lt;/div&gt;&lt;/div&gt;" style="rounded=1;whiteSpace=wrap;html=1;glass=0;" parent="U-rFDizpqV9OptAms4BL-1" vertex="1">
          <mxGeometry x="222.74" y="27.39999999999994" width="150" height="70" as="geometry" />
        </mxCell>
        <mxCell id="hXkjwgLwi-NlTGDa15fy-3" value="Web Application&lt;div&gt;(Django + React + D3)&lt;/div&gt;" style="rounded=1;whiteSpace=wrap;html=1;shadow=0;" parent="U-rFDizpqV9OptAms4BL-1" vertex="1">
          <mxGeometry x="422.74" y="27.39999999999994" width="150" height="70" as="geometry" />
        </mxCell>
      </root>
    </mxGraphModel>
  </diagram>
  <diagram id="M_8pfrwS21M96D_n7OxO" name="Data Engineering Pipeline">
    <mxGraphModel dx="941" dy="605" grid="1" gridSize="10" guides="1" tooltips="1" connect="1" arrows="1" fold="1" page="1" pageScale="1" pageWidth="850" pageHeight="1100" math="0" shadow="0">
      <root>
        <mxCell id="0" />
        <mxCell id="1" parent="0" />
        <mxCell id="qMmgVy3nJzNlRgiCfUSi-1" value="" style="group" vertex="1" connectable="0" parent="1">
          <mxGeometry x="127.50999999999993" y="363.84999999999997" width="595.48" height="124.80000000000001" as="geometry" />
        </mxCell>
        <mxCell id="0iZ9fuflpk-31wfdxNyu-1" value="" style="rounded=0;whiteSpace=wrap;html=1;rotation=90;" vertex="1" parent="qMmgVy3nJzNlRgiCfUSi-1">
          <mxGeometry x="235.3400000000001" y="-235.34000000000003" width="124.8" height="595.48" as="geometry" />
        </mxCell>
        <mxCell id="1WvZGaDYPrAxShjZqC8I-9" style="edgeStyle=orthogonalEdgeStyle;rounded=0;orthogonalLoop=1;jettySize=auto;html=1;exitX=1;exitY=0.5;exitDx=0;exitDy=0;" edge="1" parent="qMmgVy3nJzNlRgiCfUSi-1" source="GrYPRcaJxxvAsh9sU-PD-1" target="GrYPRcaJxxvAsh9sU-PD-3">
          <mxGeometry relative="1" as="geometry" />
        </mxCell>
        <mxCell id="GrYPRcaJxxvAsh9sU-PD-1" value="Bronze Layer&lt;div&gt;&lt;div&gt;(Raw Ingestion)&lt;/div&gt;&lt;/div&gt;" style="rounded=1;whiteSpace=wrap;html=1;" parent="qMmgVy3nJzNlRgiCfUSi-1" vertex="1">
          <mxGeometry x="27.490000000000066" y="27.400000000000034" width="150" height="70" as="geometry" />
        </mxCell>
        <mxCell id="GrYPRcaJxxvAsh9sU-PD-2" value="Gold Layer&lt;br&gt;&lt;div&gt;(Analytics-Ready)&lt;/div&gt;" style="rounded=1;whiteSpace=wrap;html=1;" parent="qMmgVy3nJzNlRgiCfUSi-1" vertex="1">
          <mxGeometry x="417.49000000000007" y="27.400000000000034" width="150" height="70" as="geometry" />
        </mxCell>
        <mxCell id="1WvZGaDYPrAxShjZqC8I-10" style="edgeStyle=orthogonalEdgeStyle;rounded=0;orthogonalLoop=1;jettySize=auto;html=1;entryX=0;entryY=0.5;entryDx=0;entryDy=0;" edge="1" parent="qMmgVy3nJzNlRgiCfUSi-1" source="GrYPRcaJxxvAsh9sU-PD-3" target="GrYPRcaJxxvAsh9sU-PD-2">
          <mxGeometry relative="1" as="geometry" />
        </mxCell>
        <mxCell id="GrYPRcaJxxvAsh9sU-PD-3" value="Silver Layer&lt;br&gt;&lt;div&gt;(Data Cleaning and Processing)&lt;/div&gt;" style="rounded=1;whiteSpace=wrap;html=1;" parent="qMmgVy3nJzNlRgiCfUSi-1" vertex="1">
          <mxGeometry x="222.74000000000007" y="27.400000000000034" width="150" height="70" as="geometry" />
        </mxCell>
      </root>
    </mxGraphModel>
  </diagram>
  <diagram id="iGtyeCGe0w6i0Y-IBxd2" name="Web Application Architecture">
    <mxGraphModel dx="941" dy="605" grid="1" gridSize="10" guides="1" tooltips="1" connect="1" arrows="1" fold="1" page="1" pageScale="1" pageWidth="850" pageHeight="1100" math="0" shadow="0">
      <root>
        <mxCell id="0" />
        <mxCell id="1" parent="0" />
        <mxCell id="2efENawSAJautPROeUX5-1" value="" style="group" vertex="1" connectable="0" parent="1">
          <mxGeometry x="115.23000000000008" y="123.85" width="595.48" height="124.80000000000007" as="geometry" />
        </mxCell>
        <mxCell id="rGUPJH1eEG31bud-beUb-1" value="" style="rounded=0;whiteSpace=wrap;html=1;rotation=90;" vertex="1" parent="2efENawSAJautPROeUX5-1">
          <mxGeometry x="235.34000000000003" y="-235.34000000000003" width="124.8" height="595.48" as="geometry" />
        </mxCell>
        <mxCell id="2ip-UDcfyqEwvQWdMVR0-7" style="edgeStyle=orthogonalEdgeStyle;rounded=0;orthogonalLoop=1;jettySize=auto;html=1;entryX=0;entryY=0.5;entryDx=0;entryDy=0;" edge="1" parent="2efENawSAJautPROeUX5-1" source="Kjh1ic-gx64v7bE42dOU-2" target="Kjh1ic-gx64v7bE42dOU-3">
          <mxGeometry relative="1" as="geometry" />
        </mxCell>
        <mxCell id="Kjh1ic-gx64v7bE42dOU-2" value="Backend&lt;div&gt;&lt;div&gt;(Django)&lt;/div&gt;&lt;/div&gt;" style="rounded=1;whiteSpace=wrap;html=1;" vertex="1" parent="2efENawSAJautPROeUX5-1">
          <mxGeometry x="27.739999999999924" y="27.400000000000006" width="150" height="70" as="geometry" />
        </mxCell>
        <mxCell id="2ip-UDcfyqEwvQWdMVR0-8" style="edgeStyle=orthogonalEdgeStyle;rounded=0;orthogonalLoop=1;jettySize=auto;html=1;entryX=0;entryY=0.5;entryDx=0;entryDy=0;" edge="1" parent="2efENawSAJautPROeUX5-1" source="Kjh1ic-gx64v7bE42dOU-3" target="Kjh1ic-gx64v7bE42dOU-4">
          <mxGeometry relative="1" as="geometry" />
        </mxCell>
        <mxCell id="Kjh1ic-gx64v7bE42dOU-3" value="Frontend&lt;div&gt;&lt;span style=&quot;background-color: transparent; color: light-dark(rgb(0, 0, 0), rgb(255, 255, 255));&quot;&gt;(React + D3)&lt;/span&gt;&lt;/div&gt;" style="rounded=1;whiteSpace=wrap;html=1;" vertex="1" parent="2efENawSAJautPROeUX5-1">
          <mxGeometry x="222.73999999999995" y="27.400000000000006" width="150" height="70" as="geometry" />
        </mxCell>
        <mxCell id="Kjh1ic-gx64v7bE42dOU-4" value="User&lt;div&gt;&lt;div&gt;(HR Analyst)&lt;/div&gt;&lt;/div&gt;" style="rounded=1;whiteSpace=wrap;html=1;" vertex="1" parent="2efENawSAJautPROeUX5-1">
          <mxGeometry x="417.73999999999995" y="27.400000000000006" width="150" height="70" as="geometry" />
        </mxCell>
      </root>
    </mxGraphModel>
  </diagram>
</mxfile>
